:SAMPLES-PER-SECOND 30
:FULLY-SPECIFIED
:DEGREES
124
root  11.2517 39.0841 -7.47147 75.8861 -87.3612 -85.321
RightUpLeg  -2.55204 -10.779 -8.51475
RightLeg  24.6132 0.0609651 -0.194384
RightFoot  -8.94135 -0.195565 6.42524
RightToes  0.00048216 0.542163 -0.142577
Spine  10.8666 2.0648 -5.4802
Spine1  5.24691 2.10733 -0.551079
HEad  -8.94348 8.27788 -4.43531
LeftShoulder1  9.68161 -14.1125 -47.9759
LeftArm  -6.31042 13.2781 -19.1755
LeftForeArm  29.7995 -25.166 -3.81647
LeftHand  -0.25398 0.0180481 5.50724
RightShoulder  7.12828 10.8792 43.2016
RightArm  1.18519 -4.23972 32.4401
RightForeArm  29.1608 44.8617 9.11266
RightHand  -1.10556 4.77784 -12.9325
LeftUpLeg  -5.27359 5.64166 10.6749
LeftLeg  29.3915 4.34474 2.99028
LeftFoot  -11.6612 0.0544715 -5.51126
LeftToes  1.06241e-005 4.65855e-005 -8.18508e-006
125
root  11.3704 39.0061 -7.3899 81.6064 -87.2996 -91.0977
RightUpLeg  -3.06189 -10.5703 -8.51034
RightLeg  25.2321 0.145642 -0.151381
RightFoot  -9.11147 -0.189925 6.56756
RightToes  0.00048216 0.542163 -0.142577
Spine  11.517 1.9896 -5.4609
Spine1  4.9392 1.98831 -0.57799
HEad  -9.80531 8.55369 -4.6447
LeftShoulder1  9.73193 -14.173 -48.061
LeftArm  -5.57424 13.0896 -19.4606
LeftForeArm  29.0965 -24.6404 -3.74233
LeftHand  -0.25398 0.0180481 5.50724
RightShoulder  7.15248 10.9418 43.1579
RightArm  0.73567 -3.49624 32.8021
RightForeArm  28.9616 44.8717 9.13005
RightHand  -1.18784 5.1548 -13.3933
LeftUpLeg  -5.67654 5.71799 10.6429
LeftLeg  30.1145 4.444 3.12985
LeftFoot  -12.1078 0.0367003 -5.3541
LeftToes  1.06241e-005 4.65855e-005 -8.18508e-006
126
root  11.5118 38.9262 -7.28909 88.3271 -87.2982 -97.8791
RightUpLeg  -3.56937 -10.2746 -8.62932
RightLeg  25.778 0.282685 -0.0788248
RightFoot  -9.37605 -0.18114 6.83767
RightToes  0.00048216 0.542163 -0.142577
Spine  12.1655 1.91339 -5.40319
Spine1  4.79196 1.8713 -0.61325
HEad  -10.5134 8.85912 -4.86628
LeftShoulder1  9.8166 -14.2846 -48.1765
LeftArm  -5.13392 12.9894 -19.7991
LeftForeArm  28.9328 -24.3688 -3.69409
LeftHand  -0.25398 0.0180481 5.50724
RightShoulder  7.16336 10.9702 43.1375
RightArm  0.138115 -2.85157 33.1048
RightForeArm  28.6843 45.2117 9.27111
RightHand  -1.27916 5.56956 -13.8734
LeftUpLeg  -6.06144 5.70071 10.4537
LeftLeg  30.7867 4.6604 3.34297
LeftFoot  -12.5405 0.0205535 -5.20922
LeftToes  1.06241e-005 4.65855e-005 -8.18508e-006
127
root  11.6618 38.8451 -7.17312 98.3173 -87.3787 -107.91
RightUpLeg  -4.19646 -9.73307 -8.88918
RightLeg  26.3929 0.359443 -0.0349108
RightFoot  -9.64025 -0.173263 7.24289
RightToes  0.00048216 0.542163 -0.142577
Spine  12.6359 1.90633 -5.50052
Spine1  4.93421 1.77836 -0.474285
HEad  -11.181 9.06028 -5.12333
LeftShoulder1  9.89876 -14.3474 -48.4114
LeftArm  -4.69757 12.8534 -20.1149
LeftForeArm  28.9266 -24.319 -3.68407
LeftHand  -0.25398 0.0180481 5.50724
RightShoulder  7.17657 10.9846 43.1764
RightArm  -0.452954 -2.31213 33.2385
RightForeArm  28.3998 45.8436 9.52139
RightHand  -1.329 5.71617 -14.2144
LeftUpLeg  -6.45701 5.86771 10.0976
LeftLeg  31.4497 4.86982 3.55884
LeftFoot  -12.8479 0.00962056 -5.10804
LeftToes  1.06241e-005 4.65855e-005 -8.18508e-006
128
root  11.818 38.7582 -7.0447 112.83 -87.3317 -122.491
RightUpLeg  -4.96849 -8.96275 -9.16718
RightLeg  27.1539 0.390104 -0.0130514
RightFoot  -9.76035 -0.171316 7.58928
RightToes  0.00048216 0.542163 -0.142577
Spine  13.0627 1.95454 -5.56973
Spine1  5.18609 1.73818 -0.324606
HEad  -11.8367 9.06603 -5.29211
LeftShoulder1  9.94853 -14.3437 -48.667
LeftArm  -4.0173 12.6676 -20.4144
LeftForeArm  28.8039 -24.2648 -3.67879
LeftHand  -0.25398 0.0180481 5.50724
RightShoulder  7.2107 11.0257 43.264
RightArm  -0.994654 -1.93285 33.2826
RightForeArm  28.3768 46.5239 9.77713
RightHand  -1.35394 5.75393 -14.4242
LeftUpLeg  -6.84166 6.32122 9.72456
LeftLeg  32.2019 5.04514 3.77195
LeftFoot  -13.1411 0.000227381 -5.04765
LeftToes  1.06241e-005 4.65855e-005 -8.18508e-006
129
root  11.9877 38.6648 -6.89984 127.923 -87.0247 -137.7
RightUpLeg  -5.79855 -8.19475 -9.4479
RightLeg  27.9622 0.515237 0.0647149
RightFoot  -9.72232 -0.176129 7.77104
RightToes  0.00048216 0.542163 -0.142577
Spine  13.6173 1.99152 -5.43945
Spine1  5.384 1.71908 -0.255848
HEad  -12.3212 8.86921 -5.32097
LeftShoulder1  10.0216 -14.3783 -48.9306
LeftArm  -3.30816 12.4582 -20.7318
LeftForeArm  28.6393 -23.9753 -3.6292
LeftHand  -0.25398 0.0180481 5.50724
RightShoulder  7.23504 11.0601 43.3098
RightArm  -1.4448 -1.63042 33.3492
RightForeArm  28.1682 47.0333 9.98749
RightHand  -1.40577 5.94464 -14.7169
LeftUpLeg  -7.19598 6.90239 9.36625
LeftLeg  33.0107 5.23979 4.01443
LeftFoot  -13.5053 -0.009865 -4.93817
LeftToes  1.06241e-005 4.65855e-005 -8.18508e-006
130
root  12.173 38.5743 -6.73071 140.485 -86.5875 -150.385
RightUpLeg  -6.60221 -7.58917 -9.87352
RightLeg  28.6617 0.791041 0.234725
RightFoot  -9.63996 -0.183587 7.93341
RightToes  0.00048216 0.542163 -0.142577
Spine  14.2416 1.97878 -5.29949
Spine1  5.64105 1.60807 -0.00340783
HEad  -12.5666 8.65233 -5.34029
LeftShoulder1  10.1732 -14.4885 -49.3677
LeftArm  -2.7661 12.2087 -21.0624
LeftForeArm  28.3381 -23.4871 -3.56474
LeftHand  -0.25398 0.0180481 5.50724
RightShoulder  7.20057 11.039 43.1575
RightArm  -1.6109 -1.19039 33.4557
RightForeArm  26.929 47.3733 10.2119
RightHand  -1.47446 6.09037 -15.2257
LeftUpLeg  -7.52075 7.506 8.89022
LeftLeg  33.7115 5.44198 4.2564
LeftFoot  -13.869 -0.0233323 -4.75692
LeftToes  1.06241e-005 4.65855e-005 -8.18508e-006
131
root  12.3652 38.4949 -6.53158 151.669 -86.0191 -161.697
RightUpLeg  -7.36087 -6.9606 -10.4798
RightLeg  29.2071 1.11677 0.440759
RightFoot  -9.55874 -0.192348 8.16724
RightToes  0.00048216 0.542163 -0.142577
Spine  14.8644 1.92426 -5.26622
Spine1  6.07549 1.37466 0.505497
HEad  -12.7441 8.65222 -5.48542
LeftShoulder1  10.3485 -14.5913 -49.932
LeftArm  -2.29198 11.9537 -21.4548
LeftForeArm  27.737 -23.0115 -3.55173
LeftHand  -0.25398 0.0180481 5.50724
RightShoulder  7.12013 10.9985 42.7723
RightArm  -1.47573 -0.566625 33.5609
RightForeArm  25.0816 47.7306 10.4925
RightHand  -1.49411 5.87176 -15.7034
LeftUpLeg  -7.7583 8.23435 8.25965
LeftLeg  34.2314 5.62324 4.4648
LeftFoot  -14.1741 -0.032315 -4.6162
LeftToes  1.06241e-005 4.65855e-005 -8.18508e-006
132
root  12.5597 38.4274 -6.30361 160.707 -85.1272 -170.91
RightUpLeg  -8.09539 -6.04682 -11.0902
RightLeg  29.6032 1.39981 0.624648
RightFoot  -9.36135 -0.207452 8.30518
RightToes  0.00048216 0.542163 -0.142577
Spine  15.6507 1.81916 -5.03013
Spine1  6.47099 1.12949 0.876407
HEad  -12.9807 8.86986 -5.76499
LeftShoulder1  10.4615 -14.6533 -50.302
LeftArm  -1.80422 11.7413 -22.0034
LeftForeArm  27.1708 -22.4571 -3.57376
LeftHand  -0.25398 0.0180481 5.50724
RightShoulder  7.07193 11.007 42.4375
RightArm  -1.47046 0.0256148 33.555
RightForeArm  24.1865 48.2743 10.7832
RightHand  -1.45003 5.47972 -15.7736
LeftUpLeg  -7.86899 9.1932 7.61714
LeftLeg  34.6501 5.81739 4.67278
LeftFoot  -14.4206 -0.0353419 -4.52952
LeftToes  1.06241e-005 4.65855e-005 -8.18508e-006
133
root  12.7597 38.3782 -6.06001 166.579 -83.988 -176.909
RightUpLeg  -8.85051 -4.97075 -11.6047
RightLeg  29.7639 1.66199 0.7921
RightFoot  -8.9759 -0.232437 8.28556
RightToes  0.00048216 0.542163 -0.142577
Spine  16.6826 1.62801 -4.41699
Spine1  6.53781 0.924725 0.913257
HEad  -13.1488 9.08312 -6.11824
LeftShoulder1  10.5186 -14.7225 -50.3839
LeftArm  -1.51646 11.5115 -22.6747
LeftForeArm  27.2937 -21.5202 -3.63887
LeftHand  -0.25398 0.0180481 5.50724
RightShoulder  7.09386 11.0394 42.4766
RightArm  -1.93256 0.454042 33.3363
RightForeArm  24.5791 48.9001 11.016
RightHand  -1.40976 5.38086 -15.4866
LeftUpLeg  -7.9833 10.3258 7.02012
LeftLeg  34.9518 6.02507 4.87617
LeftFoot  -14.5464 -0.0346919 -4.35296
LeftToes  1.06241e-005 4.65855e-005 -8.18508e-006
134
root  12.9577 38.3615 -5.82223 171.347 -82.896 178.448
RightUpLeg  -9.69274 -4.05835 -12.1951
RightLeg  29.6034 1.93678 0.955608
RightFoot  -8.5465 -0.264099 8.42242
RightToes  0.00048216 0.542163 -0.142577
Spine  17.6366 1.36608 -3.83755
Spine1  6.38221 0.660455 0.937953
HEad  -13.0955 9.20933 -6.517
LeftShoulder1  10.5613 -14.7895 -50.4028
LeftArm  -1.53602 11.2985 -23.3433
LeftForeArm  28.0428 -20.5214 -3.76274
LeftHand  -0.25398 0.0180481 5.50724
RightShoulder  7.11875 11.0149 42.7124
RightArm  -2.56699 0.876274 33.0851
RightForeArm  24.904 49.1705 11.1067
RightHand  -1.42231 5.63214 -15.282
LeftUpLeg  -8.26932 11.4995 6.29327
LeftLeg  34.9347 6.19058 4.99703
LeftFoot  -14.4785 -0.0249545 -4.07734
LeftToes  1.06241e-005 4.65855e-005 -8.18508e-006
135
root  13.1338 38.3664 -5.59691 176.02 -81.9088 174.156
RightUpLeg  -10.6465 -3.34565 -12.9552
RightLeg  29.2713 2.20457 1.10441
RightFoot  -8.22814 -0.298957 8.92011
RightToes  0.00048216 0.542163 -0.142577
Spine  18.246 1.07309 -3.49506
Spine1  6.31121 0.29794 1.16499
HEad  -12.8905 9.49331 -7.02227
LeftShoulder1  10.5818 -14.8126 -50.4369
LeftArm  -1.478 11.3592 -23.937
LeftForeArm  28.5631 -20.3286 -3.78894
LeftHand  -0.25398 0.0180481 5.50724
RightShoulder  7.0785 10.9612 42.623
RightArm  -2.98266 1.32387 33.1226
RightForeArm  24.559 48.818 10.9833
RightHand  -1.46539 5.90509 -15.3685
LeftUpLeg  -8.7302 12.602 5.37044
LeftLeg  34.6621 6.34847 5.0675
LeftFoot  -14.3344 -0.0146885 -3.84983
LeftToes  1.06241e-005 4.65855e-005 -8.18508e-006
136
root  13.2786 38.3836 -5.37619 179.816 -80.9049 170.755
RightUpLeg  -11.5212 -2.72871 -13.751
RightLeg  28.8169 2.51403 1.26674
RightFoot  -7.82263 -0.343604 9.43202
RightToes  0.00048216 0.542163 -0.142577
Spine  18.7909 0.782383 -3.00793
Spine1  6.27468 -0.0106174 1.31877
HEad  -12.6752 10.3334 -7.57269
LeftShoulder1  10.6193 -14.8695 -50.4588
LeftArm  -1.05754 11.6071 -24.3097
LeftForeArm  28.6507 -20.786 -3.69732
LeftHand  -0.25398 0.0180481 5.50724
RightShoulder  7.04292 11.0172 42.2202
RightArm  -3.36792 1.27892 33.1087
RightForeArm  24.4912 48.4517 10.8324
RightHand  -1.5129 6.08765 -15.6098
LeftUpLeg  -9.1132 13.6134 4.39891
LeftLeg  34.2545 6.61625 5.19092
LeftFoot  -14.1828 -0.00443462 -3.60382
LeftToes  1.06241e-005 4.65855e-005 -8.18508e-006
137
root  13.3816 38.4337 -5.15153 -177.046 -79.8855 167.93
RightUpLeg  -12.0986 -2.45648 -14.5992
RightLeg  28.0141 3.09155 1.55442
RightFoot  -7.09832 -0.4088 9.70707
RightToes  0.00048216 0.542163 -0.142577
Spine  19.4747 0.588676 -2.09936
Spine1  5.96335 -0.0961854 1.31225
HEad  -12.4067 12.1575 -7.65726
LeftShoulder1  10.8194 -15.0651 -50.8615
LeftArm  -0.408503 11.2266 -24.2923
LeftForeArm  28.8404 -20.1684 -3.88087
LeftHand  -0.25398 0.0180481 5.50724
RightShoulder  7.12896 11.2121 42.1647
RightArm  -3.99487 0.115317 31.8645
RightForeArm  25.0072 49.1337 11.0862
RightHand  -1.55824 6.24319 -15.8576
LeftUpLeg  -9.18053 14.7259 3.39392
LeftLeg  33.4756 6.90723 5.25766
LeftFoot  -13.9551 0.0121863 -3.12731
LeftToes  1.06241e-005 4.65855e-005 -8.18508e-006
138
root  13.3854 38.5257 -4.90277 -172.779 -78.9012 164.042
RightUpLeg  -12.3812 -2.95268 -15.9246
RightLeg  26.8185 4.24606 2.10604
RightFoot  -6.37173 -0.493474 10.3376
RightToes  0.00048216 0.542163 -0.142577
Spine  19.6748 0.601552 -1.01218
Spine1  5.39931 -0.0103116 1.67194
HEad  -11.8036 15.4215 -6.72239
LeftShoulder1  11.2262 -15.2933 -52.1085
LeftArm  -0.471885 9.70616 -24.3215
LeftForeArm  29.8219 -17.1293 -4.88098
LeftHand  -0.25398 0.0180481 5.50724
RightShoulder  7.24259 11.3032 42.605
RightArm  -4.47103 -2.04972 28.6654
RightForeArm  25.0999 50.8687 11.855
RightHand  -1.54735 6.12735 -15.9002
LeftUpLeg  -8.8853 16.2068 2.0623
LeftLeg  32.059 6.92095 5.01516
LeftFoot  -13.7601 0.0294043 -2.51808
LeftToes  1.06241e-005 4.65855e-005 -8.18508e-006
